<svg xmlns="http://www.w3.org/2000/svg" xmlns:xlink="http://www.w3.org/1999/xlink" viewBox="0 0 1000 1000"><defs><style>.cls-1{fill:none;}.cls-2{font-size:520.45px;fill:#fff;font-family:Comfortaa-Regular, Comfortaa;}.cls-3{font-family:Comfortaa-Bold, Comfortaa;font-weight:700;}.cls-4{fill:#3a3a3a;}.cls-5{clip-path:url(#clip-path);}.cls-6{fill:#1fc76a;}</style><clipPath id="clip-path"><path class="cls-1" d="M898,689.72V310A120.15,120.15,0,0,0,837.9,206L509.06,16.1a120.1,120.1,0,0,0-120.14,0L60.07,206A120.17,120.17,0,0,0,0,310V689.72a120.15,120.15,0,0,0,60.07,104L388.92,983.63a120.14,120.14,0,0,0,120.14,0L837.9,793.77A120.14,120.14,0,0,0,898,689.72Z"/></clipPath></defs><title>Nodeflair Logo</title><g id="Logo_Text_Horizontal" data-name="Logo Text Horizontal"><g class="cls-5"><path class="cls-6" d="M364.08,584.16a20.47,20.47,0,0,1,20.47-20.46,19.54,19.54,0,0,1,2.78.28L433,454.69,307.83,274.57a70.66,70.66,0,0,1-22.07,3.55c-.76,0-1.49-.09-2.25-.12L209.73,651.47a71,71,0,0,1,25.69,21.35l129.71-82.48A20.38,20.38,0,0,1,364.08,584.16Z"/><path class="cls-6" d="M595.67,694.65c.64-1,1.32-1.91,2-2.85L440,464.84,397,568a19.88,19.88,0,0,1,7.39,21.15Z"/><path class="cls-6" d="M174,644.42l74.48-377a71.41,71.41,0,0,1-15.09-12.56L115.67,347.14a20.13,20.13,0,0,1,.71,5.06,20.4,20.4,0,0,1-11.76,18.45l63.17,274.44C169.82,644.78,171.88,644.55,174,644.42Z"/><path class="cls-6" d="M687,357.1a70.91,70.91,0,0,1,53-68.56L711.25,133.4l-49-28.31-78.83,44.78a20.21,20.21,0,0,1-19.72,25.67,19.69,19.69,0,0,1-2.78-.28L461.42,413.52,636.15,665.05a70.89,70.89,0,0,1,18.94-2.64c.16,0,.32,0,.49,0l66.71-244.05A70.88,70.88,0,0,1,687,357.1Z"/><path class="cls-6" d="M233.71,893.41l-37.3-109.66A70.51,70.51,0,0,1,117,750.38l-71.65,34.3Z"/><path class="cls-6" d="M750.19,286.59a70.61,70.61,0,0,1,65.7,29.65l80.05-48A72.89,72.89,0,0,0,861,219.87l-137.9-79.62Z"/><path class="cls-6" d="M724.83,746.2a71,71,0,0,1-53.74,56.25l12.4,79.86L861,779.82a72.8,72.8,0,0,0,19.67-16.65Z"/><path class="cls-6" d="M555.44,136.35a20.37,20.37,0,0,1,22.84,4.43l73.47-41.73L485.44,3a72.84,72.84,0,0,0-37.85-9.72Z"/><path class="cls-6" d="M821.25,325.18a70.86,70.86,0,0,1-63.31,102.88c-.17,0-.33,0-.49,0L690.73,672.09A70.83,70.83,0,0,1,726,733.37c0,.83-.09,1.64-.12,2.47l161.6,17.59a72.87,72.87,0,0,0,10-36.75V283c0-1.18-.06-2.35-.12-3.51Z"/><path class="cls-6" d="M660.79,804c-1.89.15-3.78.29-5.7.29a70.86,70.86,0,0,1-64.44-100.55L399.33,598.26a20.29,20.29,0,0,1-28.64.88L241.08,681.56a71,71,0,0,1-34.79,98.91L247.4,901.32l165.13,95.34a72.93,72.93,0,0,0,72.91,0L673.82,887.9Z"/><path class="cls-6" d="M112.54,741a70.8,70.8,0,0,1,45.08-93.64L94.36,372.51a20.26,20.26,0,0,1-16-30.71L2.81,264.94A72.53,72.53,0,0,0,.51,283V716.68a72.88,72.88,0,0,0,34,61.64Z"/><path class="cls-6" d="M85.81,334.5a20.15,20.15,0,0,1,24.73,3.42l116.32-91.2a71,71,0,1,1,118.22-.67L454.37,403.37l96.89-232.11a20.2,20.2,0,0,1-4-28.38L435.48-5.46a72.9,72.9,0,0,0-23,8.49L37,219.87A72.86,72.86,0,0,0,6.59,253.93Z"/></g></g></svg>